<svg width="77" height="88" viewBox="0 0 77 88" fill="none" xmlns="http://www.w3.org/2000/svg">
<path d="M13.9375 43.0002L1 57.0001V79.5001C1 81.4892 1.79018 83.3969 3.1967 84.8034C4.60322 86.2099 6.51088 87.0001 8.5 87.0001H68.5C70.4891 87.0001 72.3968 86.2099 73.8033 84.8034C75.2098 83.3969 76 81.4892 76 79.5001V57.0001L63.0625 43.0002C62.0625 42.0002 61.1344 40.6991 59.9486 39.9637C58.7628 39.2284 57.3953 38.8384 56 38.8377H22C20.6047 38.8384 19.1858 38.7648 18 39.5002C16.8142 40.2355 15.9375 41.0002 13.9375 43.0002Z" stroke="#8597AC" stroke-width="2" stroke-linecap="round" stroke-linejoin="round"/>
<path d="M76 57H53.5L46 68.25H31L23.5 57H1" stroke="#8597AC" stroke-width="2" stroke-linecap="round" stroke-linejoin="round"/>
<path d="M51.5 7H22C20.5413 7 19.1424 7.57946 18.1109 8.61091C17.0795 9.64236 16.5 11.0413 16.5 12.5L16.5 57H23.5C24.5315 58.0314 31 68.5 31 68.5H46L54 57H60.5V16.5L51.5 7Z" fill="#F3F7FB" stroke="#8597AC" stroke-width="2" stroke-linecap="round" stroke-linejoin="round"/>
<path d="M51.5 7.5V17H60.5" stroke="#8597AC" stroke-width="2" stroke-linecap="round" stroke-linejoin="round"/>
<path d="M35 39H42" stroke="#8597AC" stroke-width="2" stroke-linecap="round" stroke-linejoin="round"/>
<path d="M18 4V0" stroke="#8597AC" stroke-width="2" stroke-linecap="round" stroke-linejoin="round"/>
<path d="M14 6L9 2" stroke="#8597AC" stroke-width="2" stroke-linecap="round" stroke-linejoin="round"/>
<circle cx="31" cy="33" r="2" fill="#8597AC"/>
<circle cx="46" cy="33" r="2" fill="#8597AC"/>
<path d="M12.005 10.534L7 10.5625" stroke="#8597AC" stroke-width="2" stroke-linecap="round" stroke-linejoin="round"/>
</svg>
